<svg width="20" height="21" viewBox="0 0 20 21" fill="none" xmlns="http://www.w3.org/2000/svg">
<path d="M9.99999 3.28572C8.40869 3.28572 6.88256 3.91786 5.75735 5.04308C4.63213 6.1683 3.99999 7.69442 3.99999 9.28572V13.5714C3.99999 14.2534 3.72907 14.9075 3.24683 15.3897C2.7646 15.8719 2.11054 16.1429 1.42856 16.1429H18.5714C17.8894 16.1429 17.2354 15.8719 16.7531 15.3897C16.2709 14.9075 16 14.2534 16 13.5714V9.28572C16 7.69442 15.3678 6.1683 14.2426 5.04308C13.1174 3.91786 11.5913 3.28572 9.99999 3.28572ZM9.99999 3.28572V0.714294M11.4828 19.5714C11.3321 19.8312 11.1159 20.0469 10.8556 20.1967C10.5954 20.3466 10.3003 20.4255 9.99999 20.4255C9.69966 20.4255 9.40461 20.3466 9.14436 20.1967C8.88412 20.0469 8.66782 19.8312 8.51713 19.5714" stroke="#59595A" stroke-linecap="round" stroke-linejoin="round"/>
</svg>
